<svg width="103" height="24" viewBox="0 0 103 24" fill="none" xmlns="http://www.w3.org/2000/svg">
<path d="M36.0848 14.7466C36.0848 14.993 36.0848 15.2641 36.0454 15.5377C36.0059 15.8112 35.9862 16.0922 35.9492 16.383H23.3483C23.495 16.8402 23.7014 17.276 23.9619 17.6793C24.2233 18.085 24.5506 18.444 24.9305 18.7415C25.3211 19.0471 25.7589 19.2869 26.2268 19.4513C26.7401 19.6251 27.2796 19.7085 27.8213 19.6978C28.5458 19.6949 29.2647 19.5708 29.9482 19.3305C30.5985 19.1212 31.2013 18.7862 31.7226 18.3447L34.2044 20.8265C33.239 21.5744 32.1564 22.1574 31.0005 22.5516C29.9289 22.8875 28.8113 23.0538 27.6883 23.0445C25.4503 23.0592 23.2977 22.1863 21.702 20.617C20.9406 19.8645 20.3336 18.9703 19.9152 17.9849C19.4827 16.9627 19.2598 15.864 19.2598 14.754C19.2598 13.644 19.4827 12.5453 19.9152 11.523C20.3354 10.5356 20.9469 9.64103 21.7143 8.89096C22.4871 8.13783 23.3941 7.53599 24.3883 7.11652C25.4231 6.67716 26.537 6.45488 27.6611 6.46343C28.7587 6.45897 29.8467 6.66737 30.865 7.07709C31.8622 7.47274 32.7773 8.05019 33.5636 8.78006C34.3788 9.53877 35.0257 10.4601 35.4625 11.4844C35.8993 12.5088 36.1163 13.6134 36.0996 14.7269L36.0848 14.7466ZM31.9666 13.2235C31.6869 12.2647 31.1095 11.4198 30.3179 10.8108C29.5519 10.2105 28.6047 9.88815 27.6316 9.89647C26.6705 9.88864 25.736 10.2115 24.9847 10.8108C24.1996 11.4235 23.6272 12.2675 23.3483 13.2235H31.9666Z" fill="#0057ff"/>
<path d="M42.248 0.0187988H38.2383V22.6576H42.248V0.0187988Z" fill="#0057ff"/>
<path d="M71.591 14.7737C71.6015 15.9023 71.3783 17.0208 70.9354 18.0589C70.5161 19.0432 69.9045 19.9339 69.1364 20.6787C67.529 22.2173 65.3875 23.0724 63.1624 23.0643C60.942 23.0755 58.8061 22.2134 57.2156 20.6639C56.4305 19.8977 55.8077 18.9814 55.3843 17.9694C54.9609 16.9575 54.7456 15.8707 54.7511 14.7737C54.7442 13.6615 54.9727 12.5605 55.4215 11.5428C55.8518 10.5535 56.4665 9.65523 57.2329 8.89593C58.0018 8.13858 58.9097 7.5369 59.9068 7.12396C60.9346 6.69395 62.0386 6.476 63.1526 6.48319C64.286 6.47304 65.4099 6.69095 66.4575 7.12396C67.4546 7.5315 68.366 8.12347 69.1438 8.86882C69.9137 9.6168 70.5255 10.5119 70.9428 11.5009C71.3802 12.5361 71.6008 13.65 71.591 14.7737ZM67.6626 14.7737C67.6674 14.1293 67.5477 13.49 67.3102 12.8909C67.0844 12.3274 66.757 11.8103 66.3441 11.3653C65.942 10.9321 65.4567 10.5842 64.9172 10.3426C64.369 10.0989 63.7759 9.97295 63.176 9.97295C62.5761 9.97295 61.983 10.0989 61.4348 10.3426C60.8953 10.5842 60.41 10.9321 60.0079 11.3653C59.595 11.8103 59.2676 12.3274 59.0418 12.8909C58.5718 14.1021 58.5718 15.4454 59.0418 16.6566C59.2676 17.2201 59.595 17.7372 60.0079 18.1821C60.4106 18.6147 60.8958 18.9624 61.4348 19.2049C61.983 19.4486 62.5761 19.5745 63.176 19.5745C63.7759 19.5745 64.369 19.4486 64.9172 19.2049C65.4562 18.9624 65.9413 18.6147 66.3441 18.1821C66.757 17.7372 67.0844 17.2201 67.3102 16.6566C67.5479 16.0576 67.6676 15.4182 67.6626 14.7737Z" fill="#0057ff"/>
<path d="M17.1057 14.7737V0.0187988H13.123V8.08508L17.1057 14.7737Z" fill="#0057ff"/>
<path d="M17.1032 14.7738C17.1145 15.9021 16.8921 17.0206 16.4501 18.0589C16.0308 19.0438 15.4182 19.9347 14.6486 20.6787C13.0418 22.2167 10.9013 23.0718 8.67712 23.0643C6.45666 23.0755 4.32078 22.2134 2.7303 20.6639C1.94523 19.8978 1.32242 18.9814 0.899017 17.9695C0.47561 16.9575 0.260263 15.8707 0.265812 14.7738C0.258151 13.6617 0.485756 12.5607 0.933689 11.5428C1.36489 10.5534 1.98047 9.65515 2.74755 8.89594C3.51645 8.13859 4.42441 7.53691 5.42153 7.12397C6.44924 6.69397 7.55324 6.47602 8.66726 6.4832C10.8915 6.47568 13.032 7.33082 14.6387 8.86883C15.4135 9.61438 16.0297 10.5088 16.4501 11.4984C16.8896 12.534 17.1119 13.6488 17.1032 14.7738ZM13.1773 14.7738C13.1825 14.129 13.0619 13.4895 12.8224 12.8909C12.5985 12.3271 12.2717 11.8098 11.8588 11.3654C11.4562 10.9315 10.97 10.5835 10.4294 10.3426C9.88171 10.0988 9.28892 9.97282 8.68944 9.97282C8.08997 9.97282 7.49718 10.0988 6.94951 10.3426C6.40964 10.5836 5.92422 10.9315 5.52257 11.3654C5.10886 11.8097 4.78127 12.3269 4.55649 12.8909C4.0865 14.1021 4.0865 15.4454 4.55649 16.6566C4.78127 17.2206 5.10886 17.7378 5.52257 18.1821C5.92489 18.6152 6.41015 18.963 6.94951 19.2049C7.49718 19.4487 8.08997 19.5747 8.68944 19.5747C9.28892 19.5747 9.88171 19.4487 10.4294 19.2049C10.9695 18.9631 11.4556 18.6153 11.8588 18.1821C12.2717 17.7377 12.5985 17.2204 12.8224 16.6566C13.0622 16.0581 13.1827 15.4185 13.1773 14.7738Z" fill="#0057ff"/>
<path d="M85.0319 18.2363C85.0453 18.9692 84.8559 19.6916 84.4848 20.3237C84.124 20.9277 83.6393 21.4485 83.0628 21.8517C82.4619 22.2684 81.7955 22.5816 81.0912 22.7784C80.3898 22.9836 79.6631 23.0889 78.9323 23.0914C77.7904 23.104 76.6585 22.8765 75.6102 22.4235C74.5566 21.9443 73.6404 21.2078 72.946 20.2818L75.3194 17.8839C75.7637 18.4585 76.3205 18.9364 76.9558 19.2886C77.5673 19.6185 78.2523 19.7881 78.9471 19.7815C79.4811 19.8006 80.0111 19.6835 80.4874 19.4414C80.6771 19.3479 80.8358 19.2017 80.9446 19.0203C81.0534 18.8389 81.1077 18.6301 81.1011 18.4187C81.1011 17.9455 80.8102 17.5512 80.2286 17.2308C79.4413 16.8345 78.6155 16.5199 77.7641 16.2918C77.1452 16.1099 76.5426 15.8766 75.9626 15.5944C75.3984 15.3251 74.8756 14.9765 74.41 14.5593C73.9636 14.1614 73.5936 13.6853 73.3182 13.1545C73.036 12.5879 72.8957 11.9612 72.9091 11.3283C72.8981 10.6062 73.082 9.89445 73.4414 9.26802C73.7915 8.66461 74.2672 8.14352 74.8363 7.74004C75.438 7.3253 76.1042 7.01301 76.8079 6.81585C77.5275 6.60019 78.2747 6.4906 79.026 6.49054C80.1528 6.46302 81.2709 6.69444 82.2942 7.167C83.3175 7.63956 84.2187 8.34064 84.9284 9.21627L82.5847 11.5896C82.1556 11.0499 81.6279 10.5966 81.0296 10.2538C80.4469 9.92546 79.7884 9.75552 79.1196 9.76092C78.8704 9.76407 78.6224 9.79549 78.3803 9.85457C78.1236 9.91535 77.8753 10.0072 77.6409 10.1281C77.4226 10.2395 77.2315 10.3977 77.0815 10.5915C76.9393 10.7746 76.8629 11.0003 76.8646 11.2322C76.8646 11.6512 77.1414 12.0151 77.6951 12.324C78.4561 12.7146 79.2556 13.0251 80.0808 13.2506C80.7398 13.4453 81.3793 13.701 81.9907 14.0146C82.5623 14.304 83.0941 14.666 83.5729 15.0916C84.0151 15.4851 84.3803 15.9572 84.6499 16.4841C84.9146 17.0295 85.0455 17.6302 85.0319 18.2363Z" fill="#0057ff"/>
<path d="M100.039 4.13696C99.4962 4.13696 98.9759 3.92145 98.5923 3.53784C98.2087 3.15422 97.9932 2.63394 97.9932 2.09143C97.9928 1.82271 98.0455 1.55658 98.1482 1.30825C98.2509 1.05993 98.4016 0.834307 98.5916 0.644298C98.7816 0.454288 99.0072 0.303629 99.2555 0.200946C99.5038 0.0982635 99.77 0.0455756 100.039 0.0458999C100.581 0.0458999 101.101 0.261411 101.485 0.645021C101.869 1.02863 102.084 1.54892 102.084 2.09143C102.084 2.63374 101.868 3.15364 101.484 3.53711C101.101 3.92058 100.581 4.1363 100.039 4.13696ZM102.03 22.6551H98.0474V6.86515H102.03V22.6551Z" fill="#0057ff"/>
<path d="M44.627 8.82197C44.625 7.66538 44.8514 6.51978 45.2931 5.45085C45.7348 4.38192 46.3832 3.41069 47.201 2.59286C48.0188 1.77502 48.9901 1.12666 50.059 0.684945C51.1279 0.243235 52.2735 0.0168636 53.4301 0.0188113V3.79195C52.3162 3.79224 51.2338 4.16175 50.3522 4.84267C49.4706 5.52359 48.8396 6.47752 48.5578 7.55523H53.4301V11.3259H48.4001V22.6453H44.627V8.82197Z" fill="#0057ff"/>
<path d="M90.8923 8.82196V13.852C90.8913 14.5133 91.0207 15.1683 91.273 15.7795C91.5253 16.3908 91.8957 16.9463 92.3628 17.4144C92.8299 17.8825 93.3848 18.2539 93.9955 18.5074C94.6063 18.7609 95.261 18.8916 95.9223 18.8919V22.665C94.7656 22.6676 93.6197 22.4417 92.5504 22.0002C91.4812 21.5587 90.5097 20.9104 89.6918 20.0924C88.8738 19.2745 88.2254 18.303 87.784 17.2337C87.3425 16.1645 87.1166 15.0186 87.1192 13.8618V0.0187988H90.8923V5.04883H95.9223V8.82196H90.8923Z" fill="#0057ff"/>
</svg>
